<svg width="256" height="49" viewBox="0 0 256 49" fill="none" xmlns="http://www.w3.org/2000/svg">
<path fill-rule="evenodd" clip-rule="evenodd" d="M135.553 18.7815H115.332V13.4737H146.365L125.319 38.2019C153.169 28.7868 204.168 22.7315 256 41.3193L255.924 41.2922C197.827 20.4577 134.023 41.3193 113.097 48.1786V43.3195L135.553 18.7815Z" fill="black"/>
<path fill-rule="evenodd" clip-rule="evenodd" d="M153.875 43.9232C156.182 45.3495 158.804 46.0627 161.741 46.0627C164.384 46.0627 166.524 45.5383 168.16 44.4895C169.838 43.4407 171.18 42.2241 172.187 40.8397L173.068 45.3076H180.242V35.1645C176.705 35.4994 173.235 35.9099 169.848 36.3799C169.83 36.3983 169.813 36.4166 169.796 36.4348C168.16 38.1549 166.041 39.0149 163.44 39.0149C161.906 39.0149 160.531 38.6984 159.313 38.0654C155.971 38.6698 152.735 39.3204 149.621 39.9985C150.786 41.5818 152.204 42.8901 153.875 43.9232ZM146.414 30.7185C146.396 30.3631 146.387 30.0031 146.387 29.6387C146.387 26.4923 147.058 23.7026 148.401 21.2694C149.743 18.7943 151.568 16.8645 153.875 15.4801C156.182 14.0537 158.804 13.3406 161.741 13.3406C164.09 13.3406 166.146 13.7811 167.908 14.662C169.67 15.543 171.096 16.7806 172.187 18.3747V0H180.242V27.2547C177.49 27.3162 174.784 27.4286 172.126 27.5872C171.794 25.8019 171.017 24.2833 169.796 23.0314C168.16 21.2694 166.041 20.3884 163.44 20.3884C160.881 20.3884 158.763 21.2484 157.084 22.9684C155.462 24.631 154.624 26.7638 154.57 29.367C151.766 29.7719 149.044 30.2249 146.414 30.7185ZM148.489 38.2317C148.459 38.1783 148.43 38.1248 148.401 38.0709C147.507 36.4233 146.911 34.627 146.612 32.6819C149.215 32.1912 151.908 31.7404 154.685 31.3371C154.969 33.312 155.769 34.9903 157.084 36.3719C157.113 36.4015 157.141 36.4308 157.169 36.4599C154.183 37.0204 151.286 37.6155 148.489 38.2317ZM172.312 29.546C172.313 29.5977 172.313 29.6496 172.313 29.7016C172.313 31.3814 171.994 32.8781 171.358 34.1917C174.264 33.8099 177.228 33.4727 180.242 33.19V29.2217C177.554 29.2823 174.909 29.3919 172.312 29.546ZM187.45 29.1788C187.441 29.4347 187.437 29.6929 187.437 29.9533C187.437 30.8731 187.495 31.7614 187.61 32.6184C190.208 32.4596 192.836 32.3451 195.488 32.2808C195.463 32.0753 195.443 31.8659 195.429 31.6524H217.832C214.644 31.162 211.482 30.7506 208.351 30.4125C201.196 29.6399 194.206 29.2507 187.45 29.1788ZM228.989 33.6789L229.277 34.4635C232.053 34.9145 234.833 35.4402 237.611 36.0465L237.477 35.6497C234.636 34.9259 231.805 34.2702 228.989 33.6789ZM236.733 33.4348C233.873 32.725 231.025 32.0832 228.191 31.5057L221.803 14.0957H230.235L236.733 33.4348ZM238.741 35.9759L238.641 36.275C240.993 36.8054 243.343 37.3941 245.689 38.0447L245.729 37.9381C243.394 37.2369 241.064 36.5835 238.741 35.9759ZM246.411 36.0896C244.058 35.3815 241.71 34.7215 239.369 34.1075L246.093 14.0957H254.525L246.411 36.0896ZM245.006 39.8959C240.034 38.5229 235.041 37.431 230.055 36.5852L233.256 45.3076H243.01L245.006 39.8959ZM195.923 34.2361C193.25 34.2961 190.602 34.4076 187.984 34.5646C188.33 35.9277 188.84 37.2014 189.514 38.3856C190.898 40.8188 192.807 42.7066 195.24 44.049C197.673 45.3915 200.463 46.0627 203.609 46.0627C206.126 46.0627 208.371 45.6012 210.342 44.6783C212.356 43.7554 214.034 42.4968 215.377 40.9027C216.761 39.2666 217.747 37.4627 218.334 35.4909H210.154C209.608 36.6656 208.769 37.6305 207.637 38.3856C206.546 39.0988 205.182 39.4553 203.546 39.4553C201.365 39.4553 199.498 38.7631 197.946 37.3788C197.019 36.5289 196.344 35.4813 195.923 34.2361ZM219.231 29.8806C208.325 28.1447 197.709 27.3276 187.609 27.2139C187.886 25.0747 188.5 23.1142 189.451 21.3323C190.835 18.8152 192.723 16.8645 195.114 15.4801C197.547 14.0537 200.4 13.3406 203.672 13.3406C206.735 13.3406 209.441 14.0118 211.79 15.3542C214.139 16.6967 215.964 18.5425 217.264 20.8918C218.607 23.1992 219.278 25.7792 219.278 28.6319C219.278 29.0323 219.262 29.4486 219.231 29.8806ZM15.9206 46.0627C12.6903 46.0627 9.87957 45.4754 7.48834 44.3007C5.0971 43.1261 3.25124 41.49 1.95074 39.3924C0.650248 37.2948 0 34.8617 0 32.0929H5.53759C5.53759 33.8129 5.93613 35.407 6.73321 36.8753C7.53029 38.3017 8.68395 39.4553 10.1942 40.3363C11.7464 41.1754 13.6552 41.5949 15.9206 41.5949C18.8991 41.5949 21.2065 40.8817 22.8426 39.4553C24.4787 38.029 25.2967 36.2461 25.2967 34.1065C25.2967 32.3446 24.9192 30.9392 24.164 29.8904C23.4089 28.7997 22.3811 27.9187 21.0806 27.2475C19.8221 26.5763 18.3538 25.9889 16.6757 25.4855C15.0396 24.9821 13.3196 24.4158 11.5157 23.7865C8.11761 22.6118 5.60052 21.1645 3.96441 19.4445C2.32831 17.6825 1.51025 15.3962 1.51025 12.5854C1.4683 10.2362 2.01367 8.15956 3.14636 6.35565C4.27905 4.50978 5.8732 3.08343 7.92883 2.0766C10.0264 1.02781 12.5015 0.503419 15.3542 0.503419C18.165 0.503419 20.5982 1.02781 22.6538 2.0766C24.7514 3.12538 26.3665 4.57271 27.4992 6.41857C28.6738 8.26444 29.2821 10.362 29.3241 12.7113H23.7865C23.7865 11.4947 23.4718 10.2991 22.8426 9.12444C22.2133 7.90785 21.2484 6.92199 19.9479 6.16686C18.6894 5.41174 17.0952 5.03417 15.1655 5.03417C12.7742 4.99222 10.8025 5.60052 9.2503 6.85907C7.74004 8.11761 6.98492 9.85859 6.98492 12.082C6.98492 13.9698 7.50931 15.4172 8.5581 16.424C9.64884 17.4308 11.1591 18.2699 13.0889 18.9411C15.0186 19.5704 17.2421 20.3045 19.7591 21.1435C21.8567 21.8987 23.7445 22.7796 25.4226 23.7865C27.1006 24.7933 28.4011 26.0938 29.3241 27.688C30.289 29.2821 30.7714 31.3168 30.7714 33.7919C30.7714 35.8895 30.226 37.8822 29.1353 39.77C28.0446 41.6158 26.3875 43.1261 24.164 44.3007C21.9826 45.4754 19.2347 46.0627 15.9206 46.0627ZM50.2867 45.3076C47.434 45.3076 45.1896 44.6154 43.5535 43.231C41.9174 41.8466 41.0993 39.3505 41.0993 35.7426V18.5635H35.6876V14.0957H41.0993L41.7915 6.60736H46.3852V14.0957H55.5726V18.5635H46.3852V35.7426C46.3852 37.7144 46.7837 39.0568 47.5808 39.77C48.3779 40.4412 49.7833 40.7768 51.7969 40.7768H55.0692V45.3076H50.2867ZM66.1896 44.7412C67.9096 45.6222 70.0701 46.0627 72.6711 46.0627C75.5238 46.0627 77.7891 45.4544 79.4672 44.2378C81.1872 42.9793 82.4877 41.469 83.3687 39.7071L83.6833 45.3076H88.4029V26.1148C88.4029 22.2553 87.2912 19.1718 85.0677 16.8645C82.8862 14.5152 79.614 13.3406 75.2511 13.3406C73.0277 13.3406 70.9301 13.7601 68.9584 14.5991C66.9866 15.3962 65.3296 16.5708 63.9871 18.123C62.6866 19.6752 61.9315 21.584 61.7217 23.8494H67.1335C67.511 21.8777 68.434 20.3884 69.9023 19.3816C71.4125 18.3328 73.1955 17.8084 75.2511 17.8084C77.6423 17.8084 79.5511 18.5216 80.9775 19.9479C82.4038 21.3323 83.117 23.3879 83.117 26.1148V26.4923H74.6847C70.4896 26.4923 67.1754 27.3524 64.7422 29.0724C62.3091 30.7924 61.0925 33.2465 61.0925 36.4348C61.0925 38.1549 61.512 39.749 62.351 41.2173C63.19 42.6856 64.4696 43.8603 66.1896 44.7412ZM78.6492 40.0217C77.2228 41.0705 75.5028 41.5949 73.4891 41.5949C71.3076 41.5949 69.6086 41.1124 68.392 40.1475C67.2174 39.1407 66.6301 37.8192 66.6301 36.1831C66.6301 34.589 67.2593 33.2675 68.5179 32.2187C69.8184 31.128 72.0208 30.5826 75.1252 30.5826H83.117V30.6455C83.117 32.4914 82.7394 34.2534 81.9843 35.9314C81.2292 37.6095 80.1175 38.9729 78.6492 40.0217ZM96.3327 45.3076V14.0957H101.115L101.556 20.0738C102.521 18.0182 103.989 16.382 105.961 15.1655C107.932 13.9489 110.365 13.3406 113.26 13.3406V18.8782H111.813C109.967 18.8782 108.268 19.2138 106.716 19.885C105.163 20.5143 103.926 21.605 103.003 23.1572C102.08 24.7094 101.619 26.8489 101.619 29.5758V45.3076H96.3327ZM203.672 19.885C201.7 19.885 199.96 20.4513 198.449 21.584C196.939 22.6748 195.974 24.3528 195.555 26.6182H211.098C210.972 24.5626 210.217 22.9265 208.832 21.7099C207.448 20.4933 205.728 19.885 203.672 19.885Z" fill="black"/>
<path d="M250.636 36.036L251.902 37.7647L253.938 37.0943L252.685 38.8331L253.952 40.5619L251.911 39.9078L250.658 41.6466L250.65 39.5035L248.609 38.8494L250.644 38.179L250.636 36.036Z" fill="black"/>
</svg>
